<?xml version="1.0" encoding="UTF-8" standalone="no"?>
<svg
   xmlns:osb="http://www.openswatchbook.org/uri/2009/osb"
   xmlns:dc="http://purl.org/dc/elements/1.1/"
   xmlns:cc="http://creativecommons.org/ns#"
   xmlns:rdf="http://www.w3.org/1999/02/22-rdf-syntax-ns#"
   xmlns:svg="http://www.w3.org/2000/svg"
   xmlns="http://www.w3.org/2000/svg"
   xmlns:sodipodi="http://sodipodi.sourceforge.net/DTD/sodipodi-0.dtd"
   xmlns:inkscape="http://www.inkscape.org/namespaces/inkscape"
   width="563.15802"
   height="72.25"
   viewBox="0 0 563.15802 72.25"
   version="1.1"
   id="svg3817"
   sodipodi:docname="logo.svg"
   inkscape:version="0.92.3 (2405546, 2018-03-11)">
  <metadata
     id="metadata3821">
    <rdf:RDF>
      <cc:Work
         rdf:about="">
        <dc:format>image/svg+xml</dc:format>
        <dc:type
           rdf:resource="http://purl.org/dc/dcmitype/StillImage" />
        <dc:title></dc:title>
      </cc:Work>
    </rdf:RDF>
  </metadata>
  <sodipodi:namedview
     pagecolor="#ffffff"
     bordercolor="#666666"
     borderopacity="1"
     objecttolerance="10"
     gridtolerance="10"
     guidetolerance="10"
     inkscape:pageopacity="0"
     inkscape:pageshadow="2"
     inkscape:window-width="1920"
     inkscape:window-height="1029"
     id="namedview3819"
     showgrid="true"
     inkscape:zoom="8"
     inkscape:cx="517.71165"
     inkscape:cy="39.752754"
     inkscape:window-x="0"
     inkscape:window-y="27"
     inkscape:window-maximized="1"
     inkscape:current-layer="svg3817"
     fit-margin-top="0"
     fit-margin-left="0"
     fit-margin-right="0"
     fit-margin-bottom="0">
    <inkscape:grid
       type="xygrid"
       id="grid4639"
       originx="-28.874"
       originy="-923.205" />
  </sodipodi:namedview>
  <defs
     id="defs3812">
    <linearGradient
       id="linearGradient4635"
       osb:paint="solid">
      <stop
         style="stop-color:#000000;stop-opacity:1;"
         offset="0"
         id="stop4633" />
    </linearGradient>
    <style
       id="style3810">
      .cls-1 {
        fill-rule: evenodd;
      }
    </style>
  </defs>
  <path
     inkscape:connector-curvature="0"
     id="JESUS_WEEK_-3"
     data-name="JESUS WEEK "
     class="cls-1"
     d="m 0,46.904 v 1.22 q 0,9.336 3.44,14.739 3.44,5.403 13.516,5.4 10.075,0 13.937,-6.678 2.282,-3.95 2.282,-10.7 V 14.05 H 22.117 v 37.018 a 14.9,14.9 0 0 1 -0.708,5.457 q -1.18,2.729 -4.857,2.729 -3.709,0 -4.84,-2.5 -1.131,-2.5 -1.264,-8.635 v -1.22 H 0 Z M 82.178,14.05 H 43.365 V 66.973 H 83.47 V 57.46 H 54.17 V 43.85 H 79.878 V 34.66 H 54.172 V 23.422 h 28.006 z m 5.486,36.587 q 0,8.258 5.987,12.979 5.987,4.721 16.44,4.722 10.235,0 15.841,-4.794 a 15.184,15.184 0 0 0 5.607,-12.046 q 0,-7.073 -4.732,-10.807 -3.048,-2.4 -9.153,-3.842 l -9.288,-2.19 a 31.937,31.937 0 0 1 -7.031,-2.19 4.539,4.539 0 0 1 -2.577,-4.237 5.454,5.454 0 0 1 2.613,-4.811 12.545,12.545 0 0 1 7,-1.723 14.633,14.633 0 0 1 6.588,1.328 7.579,7.579 0 0 1 4.27,6.786 h 10.628 q -0.293,-8.437 -6.27,-12.872 a 23.577,23.577 0 0 0 -14.448,-4.434 q -10.141,0 -15.375,4.7 a 15.211,15.211 0 0 0 -5.233,11.812 q 0,7.793 5.349,11.454 3.159,2.19 11.606,4.057 l 5.73,1.257 a 25.118,25.118 0 0 1 7.348,2.477 4.524,4.524 0 0 1 2.316,4.057 q 0,4.489 -4.729,6.14 a 20.284,20.284 0 0 1 -6.488,0.862 q -6.673,0 -9.422,-3.268 A 10.726,10.726 0 0 1 98.225,50.633 H 87.664 Z m 49.792,-4.058 q 0,8.439 2.617,13.142 4.91,8.616 18.639,8.617 13.729,0.001 18.6,-8.617 2.616,-4.7 2.616,-13.142 V 14.05 h -11.235 v 32.5 q 0,5.453 -1.288,7.964 -2,4.449 -8.693,4.449 -6.728,0 -8.73,-4.449 -1.288,-2.511 -1.288,-7.964 v -32.5 h -11.238 v 32.53 z m 48.679,4.058 q 0,8.258 5.988,12.979 5.988,4.721 16.44,4.722 10.233,0 15.84,-4.794 a 15.185,15.185 0 0 0 5.608,-12.046 q 0,-7.073 -4.733,-10.807 -3.046,-2.4 -9.153,-3.842 l -9.287,-2.19 a 31.937,31.937 0 0 1 -7.031,-2.19 4.539,4.539 0 0 1 -2.577,-4.237 5.452,5.452 0 0 1 2.613,-4.811 12.539,12.539 0 0 1 6.994,-1.723 14.637,14.637 0 0 1 6.589,1.328 7.576,7.576 0 0 1 4.269,6.786 h 10.631 q -0.291,-8.437 -6.27,-12.872 a 23.574,23.574 0 0 0 -14.447,-4.434 q -10.142,0 -15.375,4.7 A 15.209,15.209 0 0 0 187,29.018 q 0,7.793 5.35,11.454 3.159,2.19 11.606,4.057 l 5.729,1.257 a 25.127,25.127 0 0 1 7.349,2.477 4.526,4.526 0 0 1 2.316,4.057 q 0,4.489 -4.729,6.14 a 20.286,20.286 0 0 1 -6.489,0.862 q -6.672,0 -9.421,-3.268 a 10.726,10.726 0 0 1 -2.017,-5.421 h -10.559 z m 63.842,-36.587 15.006,52.923 h 10.271 l 6.391,-30.949 1.867,-10.233 1.867,10.233 6.391,30.949 h 10.589 L 317.247,14.05 h -11.259 l -7.055,30.63 -1.634,8.111 -1.611,-8.439 -6.288,-30.3 h -11.669 l -5.977,30.48 -1.527,8.261 -1.522,-8.434 -6.987,-30.309 z m 111.243,0 h -38.813 v 52.923 h 40.105 V 57.46 h -29.3 V 43.85 h 25.714 V 34.66 H 333.214 V 23.422 h 28.006 z m 47.207,0 H 369.614 V 66.973 H 409.72 V 57.46 h -29.3 V 43.85 h 25.706 V 34.66 H 380.421 V 23.422 h 28.005 V 14.05 Z m 8.251,52.923 h 10.879 v -17.7 l 5.326,-5.4 16.306,23.1 h 14.218 L 440.576,35.817 462.294,14.05 h -14.29 L 427.557,35.856 V 14.05 h -10.879 z"
     style="fill-rule:evenodd" />
  <path
     inkscape:connector-curvature="0"
     id="path4631"
     d="m 495.658,9.75 c -3,0 -4,1 -4,4 l 0.26172,54 c -0.26205,3 0.73828,4 3.73828,4 h 63 c 3,0 4,-1 4,-4 v -54 c 0,-3 -1,-4 -4,-4 h -7 v 4 c 0,9 -13,9 -13,0 v -4 h -23 v 4 c 0,9 -13,9 -13,0 v -4 z m 2.9375,16 h 56.875 c 1.1875,0 2.1875,1 2.1875,2 v 37 c 0,1 -1,2 -2,2 h -57 c -1,0 -2,-1 -2,-2 v -37 c 0,-1 1,-2 1.9375,-2 z"
     style="fill:#000000;fill-opacity:1;stroke:#050000;stroke-width:1;stroke-linecap:butt;stroke-linejoin:round;stroke-miterlimit:4;stroke-dasharray:none;stroke-opacity:1" />
  <path
     sodipodi:nodetypes="ccccc"
     inkscape:connector-curvature="0"
     id="path4644"
     d="m 506.658,2.75 v 11 c 0,3 5,3 5,0 v -11 c 0,-3 -5,-3 -5,0 z"
     style="fill:#000000;fill-opacity:1;stroke:#000700;stroke-width:1px;stroke-linecap:butt;stroke-linejoin:miter;stroke-opacity:1" />
  <path
     sodipodi:nodetypes="ccccc"
     inkscape:connector-curvature="0"
     id="path4644-2"
     d="m 542.658,2.75 v 11 c 0,3 5,3 5,0 v -11 c 0,-3 -5,-3 -5,0 z"
     style="fill:#000000;fill-opacity:1;stroke:#000400;stroke-width:1px;stroke-linecap:butt;stroke-linejoin:miter;stroke-opacity:1" />
  <path
     style="fill:#000000;fill-opacity:1;stroke:#000000;stroke-width:1px;stroke-linecap:butt;stroke-linejoin:miter;stroke-opacity:1"
     d="m 525.658,29.75 v 9 h -10 v 3 h 10 v 19 h 3 v -19 h 10 v -3 h -10 v -9 z"
     id="path4661"
     inkscape:connector-curvature="0" />
</svg>
