<?xml version="1.0" encoding="UTF-8" standalone="no"?>
<svg
   xmlns:osb="http://www.openswatchbook.org/uri/2009/osb"
   xmlns:dc="http://purl.org/dc/elements/1.1/"
   xmlns:cc="http://creativecommons.org/ns#"
   xmlns:rdf="http://www.w3.org/1999/02/22-rdf-syntax-ns#"
   xmlns:svg="http://www.w3.org/2000/svg"
   xmlns="http://www.w3.org/2000/svg"
   xmlns:sodipodi="http://sodipodi.sourceforge.net/DTD/sodipodi-0.dtd"
   xmlns:inkscape="http://www.inkscape.org/namespaces/inkscape"
   width="587.03198"
   height="72.25"
   viewBox="0 0 587.03198 72.25"
   version="1.1"
   id="svg3817"
   sodipodi:docname="JW logo.svg"
   inkscape:version="0.92.3 (2405546, 2018-03-11)">
  <metadata
     id="metadata3821">
    <rdf:RDF>
      <cc:Work
         rdf:about="">
        <dc:format>image/svg+xml</dc:format>
        <dc:type
           rdf:resource="http://purl.org/dc/dcmitype/StillImage" />
        <dc:title></dc:title>
      </cc:Work>
    </rdf:RDF>
  </metadata>
  <sodipodi:namedview
     pagecolor="#ffffff"
     bordercolor="#666666"
     borderopacity="1"
     objecttolerance="10"
     gridtolerance="10"
     guidetolerance="10"
     inkscape:pageopacity="0"
     inkscape:pageshadow="2"
     inkscape:window-width="1920"
     inkscape:window-height="1029"
     id="namedview3819"
     showgrid="true"
     inkscape:zoom="2"
     inkscape:cx="264.54373"
     inkscape:cy="30.7983"
     inkscape:window-x="0"
     inkscape:window-y="27"
     inkscape:window-maximized="1"
     inkscape:current-layer="svg3817"
     fit-margin-top="0"
     fit-margin-left="0"
     fit-margin-right="0"
     fit-margin-bottom="0">
    <inkscape:grid
       type="xygrid"
       id="grid4639"
       originx="-5"
       originy="-923.205" />
  </sodipodi:namedview>
  <defs
     id="defs3812">
    <linearGradient
       id="linearGradient4635"
       osb:paint="solid">
      <stop
         style="stop-color:#000000;stop-opacity:1;"
         offset="0"
         id="stop4633" />
    </linearGradient>
    <style
       id="style3810">
      .cls-1 {
        fill-rule: evenodd;
      }
    </style>
  </defs>
  <path
     id="JESUS_WEEK_"
     data-name="JESUS WEEK "
     class="cls-1"
     d="m 30.267,14.731 h -7.073 v 35.15 q 0,6.678 -1.08,9.084 -1.762,3.913 -7.484,3.913 -4.067,0 -5.991,-2.172 -1.924,-2.172 -1.925,-6.481 v -3.77 H 0 v 3.77 q 0,8.223 4.205,11.436 a 16.209,16.209 0 0 0 10.137,3.213 q 10.281,0 13.948,-6.75 1.977,-3.7 1.977,-10.376 z M 43.632,67.474 H 82.444 V 61.191 H 50.596 v -17.88 h 28.936 v -6.1 H 50.596 V 21.193 H 81.905 V 14.731 H 43.632 Z M 91.787,50.455 q -0.108,8.547 5.322,13.536 5.427,5.028 15.021,5.027 a 27.3,27.3 0 0 0 14.444,-3.77 q 6.216,-3.77 6.216,-12.531 0,-7.036 -4.871,-10.735 a 21.586,21.586 0 0 0 -8,-3.339 l -7.166,-1.688 q -7.238,-1.724 -9.289,-2.872 a 6.067,6.067 0 0 1 -3.131,-5.673 8.479,8.479 0 0 1 2.65,-6.175 q 2.651,-2.658 8.71,-2.657 7.5,0 10.636,4.129 a 13.576,13.576 0 0 1 2.2,6.5 h 6.714 q 0,-8.8 -5.643,-12.8 a 23.093,23.093 0 0 0 -13.714,-4 q -8.77,0 -13.556,4.56 a 15.41,15.41 0 0 0 -4.787,11.669 q 0,6.57 4.87,9.874 2.817,1.9 9.6,3.482 l 6.921,1.616 a 25.83,25.83 0 0 1 8.278,3.124 q 2.61,1.832 2.609,6.139 0,5.745 -6.156,7.971 a 20.633,20.633 0 0 1 -7.056,1.149 q -8.646,0 -12.071,-5.242 A 14.81,14.81 0 0 1 98.498,50.46 H 91.784 Z M 145.22,14.731 V 44.35 q 0,9.731 2.63,14.972 4.791,9.551 18.194,9.55 13.403,-0.001 18.231,-9.55 2.629,-5.242 2.63,-14.972 V 14.731 h -7.217 v 32.6 a 19.644,19.644 0 0 1 -1.773,9.084 q -3.294,6.212 -12.45,6.211 -7.637,0 -10.857,-5.745 a 19.044,19.044 0 0 1 -2.172,-9.55 v -32.6 z m 52.391,35.724 q -0.106,8.547 5.323,13.536 5.427,5.028 15.021,5.027 a 27.3,27.3 0 0 0 14.444,-3.77 q 6.216,-3.77 6.215,-12.531 0,-7.036 -4.87,-10.735 a 21.6,21.6 0 0 0 -8,-3.339 l -7.167,-1.688 q -7.236,-1.724 -9.288,-2.872 a 6.067,6.067 0 0 1 -3.131,-5.673 8.479,8.479 0 0 1 2.65,-6.175 q 2.65,-2.658 8.71,-2.657 7.5,0 10.636,4.129 a 13.566,13.566 0 0 1 2.2,6.5 h 6.714 q 0,-8.8 -5.642,-12.8 a 23.093,23.093 0 0 0 -13.714,-4 q -8.77,0 -13.557,4.56 a 15.409,15.409 0 0 0 -4.786,11.669 q 0,6.57 4.869,9.874 2.819,1.9 9.6,3.482 l 6.922,1.616 a 25.84,25.84 0 0 1 8.278,3.124 q 2.608,1.832 2.609,6.139 0,5.745 -6.157,7.971 a 20.623,20.623 0 0 1 -7.055,1.149 q -8.647,0 -12.071,-5.242 a 14.81,14.81 0 0 1 -2.04,-7.289 h -6.715 z m 70.944,-35.724 13.787,52.743 h 7.5 l 12.244,-43.731 12.171,43.731 h 7.5 l 13.86,-52.743 h -7.833 L 317.84,57.663 305.891,14.731 h -7.723 l -11.922,42.851 -9.942,-42.851 h -7.757 z m 76.177,52.743 h 38.812 v -6.283 h -31.846 v -17.88 h 28.939 v -6.1 H 351.698 V 21.193 h 31.309 v -6.462 h -38.275 z m 50.883,0 h 38.817 v -6.283 h -31.85 v -17.88 h 28.939 v -6.1 H 402.582 V 21.193 h 31.308 v -6.462 h -38.274 v 52.743 z m 50.2,0 h 6.965 V 49.091 l 8.6,-8.12 18.9,26.5 h 9.35 l -23,-31.457 22.536,-21.286 h -9.988 L 452.783,40.55 V 14.731 h -6.965 v 52.743 z"
     inkscape:connector-curvature="0"
     style="fill-rule:evenodd" />
  <g
     inkscape:groupmode="layer"
     id="layer1"
     inkscape:label="icon"
     transform="translate(-5,-4.545)">
    <path
       style="fill:#000000;fill-opacity:1;stroke:#050000;stroke-width:1;stroke-linecap:butt;stroke-linejoin:round;stroke-miterlimit:4;stroke-dasharray:none;stroke-opacity:1"
       d="m 524.532,14.295 c -3,0 -4,1 -4,4 l 0.26172,54 c -0.26205,3 0.73828,4 3.73828,4 h 63 c 3,0 4,-1 4,-4 v -54 c 0,-3 -1,-4 -4,-4 h -7 v 4 c 0,9 -13,9 -13,0 v -4 h -23 v 4 c 0,9 -13,9 -13,0 v -4 z m 2.9375,16 h 56.875 c 1.1875,0 2.1875,1 2.1875,2 v 37 c 0,1 -1,2 -2,2 h -57 c -1,0 -2,-1 -2,-2 v -37 c 0,-1 1,-2 1.9375,-2 z"
       id="path4631"
       inkscape:connector-curvature="0" />
    <path
       style="fill:#000000;fill-opacity:1;stroke:#000700;stroke-width:1px;stroke-linecap:butt;stroke-linejoin:miter;stroke-opacity:1"
       d="m 535.532,7.295 v 11 c 0,3 5,3 5,0 v -11 c 0,-3 -5,-3 -5,0 z"
       id="path4644"
       inkscape:connector-curvature="0"
       sodipodi:nodetypes="ccccc" />
    <path
       style="fill:#000000;fill-opacity:1;stroke:#000400;stroke-width:1px;stroke-linecap:butt;stroke-linejoin:miter;stroke-opacity:1"
       d="m 571.532,7.295 v 11 c 0,3 5,3 5,0 v -11 c 0,-3 -5,-3 -5,0 z"
       id="path4644-2"
       inkscape:connector-curvature="0"
       sodipodi:nodetypes="ccccc" />
  </g>
  <path
     style="fill:#000000;fill-opacity:1;stroke:#000000;stroke-width:1px;stroke-linecap:butt;stroke-linejoin:miter;stroke-opacity:1"
     d="m 549.532,29.75 v 9 h -10 v 3 h 10 v 19 h 3 v -19 h 10 v -3 h -10 v -9 z"
     id="path4661"
     inkscape:connector-curvature="0" />
</svg>
